<svg width="52" height="32" viewBox="0 0 52 32" fill="none" xmlns="http://www.w3.org/2000/svg">
<g filter="url(#filter0_d_239_384)">
<path d="M4 20C4 8.95431 12.9543 0 24 0H48V4C48 15.0457 39.0457 24 28 24H4V20Z" fill="#FF5151"/>
<path d="M22.1136 7.27273V16H20.1364L16.983 11.4148H16.9318V16H14.5625V7.27273H16.5739L19.6761 11.8409H19.7443V7.27273H22.1136ZM26.4048 16.1193C25.706 16.1193 25.1037 15.9858 24.598 15.7188C24.0952 15.4489 23.7074 15.0625 23.4347 14.5597C23.1648 14.054 23.0298 13.4489 23.0298 12.7443C23.0298 12.0682 23.1662 11.4773 23.4389 10.9716C23.7116 10.4659 24.0966 10.0724 24.5938 9.79119C25.0909 9.50994 25.6776 9.36932 26.3537 9.36932C26.848 9.36932 27.2955 9.44602 27.696 9.59943C28.0966 9.75284 28.4389 9.97585 28.723 10.2685C29.0071 10.5582 29.2259 10.9105 29.3793 11.3253C29.5327 11.7401 29.6094 12.2074 29.6094 12.7273V13.2727H23.7628V11.9773H27.4446C27.4418 11.7898 27.3935 11.625 27.2997 11.483C27.2088 11.3381 27.0852 11.2259 26.929 11.1463C26.7756 11.0639 26.6009 11.0227 26.4048 11.0227C26.2145 11.0227 26.0398 11.0639 25.8807 11.1463C25.7216 11.2259 25.5938 11.3366 25.4972 11.4787C25.4034 11.6207 25.3537 11.7869 25.348 11.9773V13.375C25.348 13.5852 25.392 13.7727 25.4801 13.9375C25.5682 14.1023 25.6946 14.2315 25.8594 14.3253C26.0241 14.419 26.223 14.4659 26.456 14.4659C26.6179 14.4659 26.7656 14.4432 26.8991 14.3977C27.0355 14.3523 27.152 14.2869 27.2486 14.2017C27.3452 14.1136 27.4162 14.0085 27.4616 13.8864H29.6094C29.5355 14.3409 29.3608 14.7358 29.0852 15.071C28.8097 15.4034 28.4446 15.6619 27.9901 15.8466C27.5384 16.0284 27.0099 16.1193 26.4048 16.1193ZM31.6463 16L30.0099 9.45455H32.3622L33.1122 13.4432H33.1634L33.9986 9.45455H36.2827L37.152 13.4091H37.2031L37.919 9.45455H40.2713L38.6349 16H36.0952L35.1747 12.4886H35.1065L34.1861 16H31.6463Z" fill="white"/>
</g>
<defs>
<filter id="filter0_d_239_384" x="0" y="0" width="52" height="32" filterUnits="userSpaceOnUse" color-interpolation-filters="sRGB">
<feFlood flood-opacity="0" result="BackgroundImageFix"/>
<feColorMatrix in="SourceAlpha" type="matrix" values="0 0 0 0 0 0 0 0 0 0 0 0 0 0 0 0 0 0 127 0" result="hardAlpha"/>
<feOffset dy="4"/>
<feGaussianBlur stdDeviation="2"/>
<feComposite in2="hardAlpha" operator="out"/>
<feColorMatrix type="matrix" values="0 0 0 0 0 0 0 0 0 0 0 0 0 0 0 0 0 0 0.4 0"/>
<feBlend mode="normal" in2="BackgroundImageFix" result="effect1_dropShadow_239_384"/>
<feBlend mode="normal" in="SourceGraphic" in2="effect1_dropShadow_239_384" result="shape"/>
</filter>
</defs>
</svg>
