<svg width="41" height="40" viewBox="0 0 41 40" fill="none" xmlns="http://www.w3.org/2000/svg">
<path d="M37.1666 20.0003C37.1666 20.9165 36.4239 21.659 35.5079 21.659H5.4919C4.57585 21.659 3.83325 20.9165 3.83325 20.0003C3.83325 19.0843 4.57585 18.3418 5.4919 18.3418H35.5079C36.4239 18.3418 37.1666 19.0843 37.1666 20.0003Z" fill="#F8F8F8"/>
<path d="M37.1666 10.6585C37.1666 11.5747 36.4239 12.3172 35.5079 12.3172H5.4919C4.57585 12.3172 3.83325 11.5747 3.83325 10.6585C3.83325 9.7425 4.57585 9 5.4919 9H35.5079C36.4239 9 37.1666 9.7425 37.1666 10.6585Z" fill="#F8F8F8"/>
<path d="M37.1666 29.6585C37.1666 30.5747 36.4239 31.3172 35.5079 31.3172H5.4919C4.57585 31.3172 3.83325 30.5747 3.83325 29.6585C3.83325 28.7425 4.57585 28 5.4919 28H35.5079C36.4239 28 37.1666 28.7425 37.1666 29.6585Z" fill="#F8F8F8"/>
</svg>
