<svg width="28" height="28" viewBox="0 0 28 28" fill="none" xmlns="http://www.w3.org/2000/svg">
<g clip-path="url(#clip0_49_2)">
<mask id="mask0_49_2" style="mask-type:luminance" maskUnits="userSpaceOnUse" x="0" y="0" width="28" height="28">
<path d="M28 0H0V28H28V0Z" fill="white"/>
</mask>
<g mask="url(#mask0_49_2)">
<path d="M14 3.49984C16.7848 3.49984 19.4555 4.60608 21.4246 6.57522C23.3938 8.54435 24.5 11.2151 24.5 13.9998C24.5 16.8617 23.3567 19.4552 21.4982 21.3498C20.5218 22.3487 19.3554 23.142 18.0676 23.683C16.7798 24.224 15.3968 24.5018 14 24.4998C12.6211 24.4998 11.2557 24.2282 9.98182 23.7006C8.7079 23.1729 7.55039 22.3995 6.57537 21.4245C5.60036 20.4494 4.82693 19.2919 4.29926 18.018C3.77159 16.7441 3.5 15.3787 3.5 13.9998C3.5 12.621 3.77159 11.2556 4.29926 9.98166C4.82693 8.70774 5.60036 7.55023 6.57537 6.57522C7.55039 5.6002 8.7079 4.82678 9.98182 4.2991C11.2557 3.77143 12.6211 3.49984 14 3.49984ZM21.3803 24.4998C22.0228 24.0472 22.6178 23.5416 23.1653 22.9832C25.5198 20.5863 26.8372 17.3597 26.8333 13.9998C26.8333 6.91234 21.0875 1.1665 14 1.1665C6.9125 1.1665 1.16666 6.91234 1.16666 13.9998C1.16666 21.0873 6.9125 26.8332 14 26.8332H28V24.4998H21.3803ZM14 6.99984C13.6906 6.99984 13.3938 7.12275 13.175 7.34155C12.9563 7.56034 12.8333 7.85708 12.8333 8.1665C12.8333 8.47592 12.9563 8.77267 13.175 8.99146C13.3938 9.21025 13.6906 9.33317 14 9.33317C14.3094 9.33317 14.6062 9.21025 14.825 8.99146C15.0438 8.77267 15.1667 8.47592 15.1667 8.1665C15.1667 7.85708 15.0438 7.56034 14.825 7.34155C14.6062 7.12275 14.3094 6.99984 14 6.99984ZM10.5 8.1665C10.5 7.23825 10.8688 6.34801 11.5251 5.69163C12.1815 5.03525 13.0717 4.6665 14 4.6665C14.9283 4.6665 15.8185 5.03525 16.4749 5.69163C17.1313 6.34801 17.5 7.23825 17.5 8.1665C17.5 9.09476 17.1313 9.985 16.4749 10.6414C15.8185 11.2978 14.9283 11.6665 14 11.6665C13.0717 11.6665 12.1815 11.2978 11.5251 10.6414C10.8688 9.985 10.5 9.09476 10.5 8.1665ZM8.16666 12.8332C7.85724 12.8332 7.5605 12.9561 7.3417 13.1749C7.12291 13.3937 7 13.6904 7 13.9998C7 14.3093 7.12291 14.606 7.3417 14.8248C7.5605 15.0436 7.85724 15.1665 8.16666 15.1665C8.47608 15.1665 8.77283 15.0436 8.99162 14.8248C9.21041 14.606 9.33333 14.3093 9.33333 13.9998C9.33333 13.6904 9.21041 13.3937 8.99162 13.1749C8.77283 12.9561 8.47608 12.8332 8.16666 12.8332ZM4.66666 13.9998C4.66666 13.5402 4.75719 13.0851 4.93308 12.6604C5.10898 12.2358 5.36678 11.85 5.69179 11.525C6.01679 11.2 6.40263 10.9422 6.82727 10.7663C7.25191 10.5904 7.70704 10.4998 8.16666 10.4998C8.62629 10.4998 9.08141 10.5904 9.50605 10.7663C9.93069 10.9422 10.3165 11.2 10.6415 11.525C10.9666 11.85 11.2244 12.2358 11.4003 12.6604C11.5761 13.0851 11.6667 13.5402 11.6667 13.9998C11.6667 14.9281 11.2979 15.8183 10.6415 16.4747C9.98516 17.1311 9.09492 17.4998 8.16666 17.4998C7.2384 17.4998 6.34817 17.1311 5.69179 16.4747C5.03541 15.8183 4.66666 14.9281 4.66666 13.9998ZM19.8333 12.8332C19.5239 12.8332 19.2272 12.9561 19.0084 13.1749C18.7896 13.3937 18.6667 13.6904 18.6667 13.9998C18.6667 14.3093 18.7896 14.606 19.0084 14.8248C19.2272 15.0436 19.5239 15.1665 19.8333 15.1665C20.1428 15.1665 20.4395 15.0436 20.6583 14.8248C20.8771 14.606 21 14.3093 21 13.9998C21 13.6904 20.8771 13.3937 20.6583 13.1749C20.4395 12.9561 20.1428 12.8332 19.8333 12.8332ZM16.3333 13.9998C16.3333 13.0716 16.7021 12.1813 17.3585 11.525C18.0148 10.8686 18.9051 10.4998 19.8333 10.4998C20.7616 10.4998 21.6518 10.8686 22.3082 11.525C22.9646 12.1813 23.3333 13.0716 23.3333 13.9998C23.3333 14.9281 22.9646 15.8183 22.3082 16.4747C21.6518 17.1311 20.7616 17.4998 19.8333 17.4998C18.9051 17.4998 18.0148 17.1311 17.3585 16.4747C16.7021 15.8183 16.3333 14.9281 16.3333 13.9998ZM14 18.6665C13.6906 18.6665 13.3938 18.7894 13.175 19.0082C12.9563 19.227 12.8333 19.5238 12.8333 19.8332C12.8333 20.1426 12.9563 20.4393 13.175 20.6581C13.3938 20.8769 13.6906 20.9998 14 20.9998C14.3094 20.9998 14.6062 20.8769 14.825 20.6581C15.0438 20.4393 15.1667 20.1426 15.1667 19.8332C15.1667 19.5238 15.0438 19.227 14.825 19.0082C14.6062 18.7894 14.3094 18.6665 14 18.6665ZM10.5 19.8332C10.5 18.9049 10.8688 18.0147 11.5251 17.3583C12.1815 16.7019 13.0717 16.3332 14 16.3332C14.9283 16.3332 15.8185 16.7019 16.4749 17.3583C17.1313 18.0147 17.5 18.9049 17.5 19.8332C17.5 20.7614 17.1313 21.6517 16.4749 22.308C15.8185 22.9644 14.9283 23.3332 14 23.3332C13.0717 23.3332 12.1815 22.9644 11.5251 22.308C10.8688 21.6517 10.5 20.7614 10.5 19.8332Z" fill="#FFBB00"/>
</g>
</g>
<defs>
<clipPath id="clip0_49_2">
<rect width="28" height="28" fill="white"/>
</clipPath>
</defs>
</svg>
